# xmcd CD database file generated by Grip 3.2.0
# 
# Track frame offsets:
#       150
#       24159
#       46224
#       69819
# 
# Disc length: 1215 seconds
# 
# Revision: 2
# Processed by: cddbd v1.5.1PL2 Copyright (c) Steve Scherf et al.
# Submitted via: Grip 3.2.0
# 
DISCID=2204bd04
DTITLE=Sequoya - Cloudbreak EP
DYEAR=2005
DGENRE=Avantgarde
TTITLE0=Slow Flame
TTITLE1=Lie Down
TTITLE2=Across The Floor
TTITLE3=DesertMind
EXTD=YEAR: 1996
EXTT0=
EXTT1=
EXTT2=
EXTT3=
PLAYORDER=
